<svg version="1.1" id="Layer_1" xmlns="http://www.w3.org/2000/svg" xmlns:xlink="http://www.w3.org/1999/xlink" x="0px" y="0px"
	 width="100%" viewBox="0 0 384 384" enable-background="new 0 0 384 384" xml:space="preserve">
<path fill="#fe8900" opacity="1.000000" stroke="none"
	d="
M271.252014,112.556061 
	C283.938171,113.137695 296.036499,115.350418 308.242340,116.230415 
	C322.285797,117.242897 336.172699,120.327377 350.333221,119.587440 
	C354.772278,119.355484 359.112885,118.096001 363.597321,119.775261 
	C369.110931,121.839943 372.504822,127.642921 370.973145,133.364731 
	C368.135803,143.964035 366.837280,154.823166 365.385193,165.656601 
	C364.029510,175.770950 359.854706,184.589157 353.926239,192.848969 
	C349.810120,198.583740 345.441284,203.936630 339.690063,208.026886 
	C332.945221,212.823837 325.233673,215.532501 317.263428,217.272461 
	C313.116028,218.177841 309.340698,216.744171 305.729675,213.944885 
	C297.012024,207.186981 291.275146,198.546753 287.749664,188.273682 
	C287.355865,187.126251 286.982483,186.093491 285.556152,185.267441 
	C283.235321,186.595551 283.222015,189.263123 282.407288,191.463257 
	C277.280884,205.306839 273.139984,219.606812 264.040802,231.626450 
	C256.300446,241.851089 248.417557,251.868393 236.188324,257.324951 
	C232.112015,259.143707 228.345795,261.721649 224.592499,264.187927 
	C214.218521,271.004578 202.743530,273.877502 190.538177,275.737885 
	C181.657669,277.091400 174.266785,274.858612 166.549500,271.671631 
	C164.027115,270.629974 162.626083,268.855713 161.093399,266.851501 
	C152.586349,255.727173 150.057693,242.513016 147.693115,229.221146 
	C147.402771,227.589066 146.949860,225.986633 146.619263,224.360901 
	C145.003906,216.417038 144.291718,215.955124 136.428864,215.301346 
	C132.988388,215.015274 129.339432,214.520493 126.254967,213.100189 
	C102.652374,202.231979 77.342209,196.289658 53.035206,187.471527 
	C49.297310,186.115494 46.267029,184.018936 43.676540,181.104599 
	C36.700539,173.256516 28.154440,167.299271 19.509922,161.541107 
	C15.403422,158.805710 13.581266,155.798920 15.230386,152.268646 
	C16.768156,148.976746 21.222260,147.553452 25.209986,149.373947 
	C41.232094,156.688477 58.258266,161.201874 74.807304,167.019547 
	C91.369316,172.841812 108.388191,177.364471 125.206451,182.457962 
	C126.992554,182.998901 128.760635,182.960464 130.612671,182.659225 
	C150.583344,179.410965 169.162277,171.645004 188.188080,165.259674 
	C203.191513,160.224319 218.125443,155.187195 234.355423,154.233337 
	C244.270706,153.650604 254.193146,152.569199 264.150055,152.742996 
	C269.426483,152.835083 274.725861,153.458679 279.948853,154.268280 
	C285.662018,155.153854 290.479004,154.187393 294.220123,149.447891 
	C296.318298,146.789780 299.151825,144.715790 302.138092,143.496033 
	C307.211243,141.423904 310.648071,137.280396 316.025116,134.330643 
	C311.341766,131.271667 306.433105,131.836578 302.233673,131.669434 
	C293.747040,131.331650 285.415436,129.840912 276.977386,129.341812 
	C276.320679,129.302979 275.533234,129.325256 275.040588,128.982651 
	C266.778839,123.237190 257.112793,124.408836 247.889496,123.370003 
	C240.938385,122.587097 234.005966,122.234497 227.052719,123.331886 
	C224.789917,123.689018 222.766464,122.778595 220.913284,121.623550 
	C218.400909,120.057625 215.401596,118.628143 215.708054,115.015877 
	C216.018753,111.353363 219.605850,111.654358 221.865936,111.094131 
	C232.840195,108.373863 244.039215,109.587952 255.140686,110.047684 
	C260.393127,110.265175 265.597229,111.650673 271.252014,112.556061 
M240.782410,237.271072 
	C243.461777,232.502090 247.536957,228.749969 249.810593,223.581009 
	C253.712372,214.710632 253.263428,205.029846 255.826569,195.994751 
	C258.194366,187.648315 261.700500,179.677963 259.678192,170.607101 
	C259.076782,167.909683 258.360474,167.049866 255.629807,166.187332 
	C248.259308,163.859207 241.609619,167.740479 234.545822,167.954391 
	C229.550659,168.105637 224.290344,167.619232 219.286758,169.394562 
	C209.452682,172.883789 199.375931,175.727585 189.670151,179.529205 
	C179.555023,183.491150 170.378006,189.758087 165.738770,199.625641 
	C156.581955,219.101929 159.284363,238.329208 170.283844,256.482452 
	C174.127670,262.826202 180.561844,263.975800 187.279968,263.434540 
	C197.176788,262.637207 206.281906,259.410431 214.676193,253.989517 
	C223.173172,248.502274 232.501007,244.334564 240.782410,237.271072 
M348.097626,133.505676 
	C338.331573,137.405548 329.374847,142.799652 320.368683,148.162491 
	C314.550354,151.627075 311.290222,156.672714 309.005005,162.723969 
	C307.719025,166.129242 308.925995,169.706039 308.059265,173.103897 
	C305.817566,181.891815 308.213287,190.255188 310.833557,198.432373 
	C311.724335,201.212326 314.422913,204.348190 318.118958,203.111755 
	C322.649200,201.596268 327.543945,199.965500 331.102325,196.979752 
	C341.083862,188.604446 348.356232,178.081390 351.591492,165.278107 
	C353.573547,157.434235 353.216400,149.185745 355.540344,141.308075 
	C358.040863,132.831833 357.531158,132.514587 348.097626,133.505676 
z"/>
</svg>